# xmcd CD database file
#
# Track frame offsets:
#	150
#	15271
#	29201
#	41947
#	55319
#	68617
#	87490
#	107800
#	120811
#	130368
#	143086
#	155406
#	182425
#	194903
#
# Disc length: 2787 seconds
#
# Revision: 0
# Processed by: cddbd v1.5.2PL0 Copyright (c) Steve Scherf et al.
# Submitted via: CDex 1.70beta2
#
DISCID=c40ae10e
DTITLE=Moloch - Moloch
DYEAR=1970
DGENRE=Blues
TTITLE0=Helping Hand
TTITLE1=Maverick Woman Blues
TTITLE2=Outta Hand
TTITLE3=Same Old Blues
TTITLE4=Going Down
TTITLE5=She Looks Like An Angel
TTITLE6=Gone Too Long
TTITLE7=Dance Chaney Dance
TTITLE8=Mona
TTITLE9=People Keep Talking
TTITLE10=I Can Think The Same Of You
TTITLE11=Night At The Possum
TTITLE12=Cocaine Katy
TTITLE13=The Terrorizing Of Miss Nancy Jane
EXTD=YEAR: 1970
EXTT0=
EXTT1=
EXTT2=
EXTT3=
EXTT4=
EXTT5=
EXTT6=
EXTT7=
EXTT8=
EXTT9=
EXTT10=
EXTT11=
EXTT12=
EXTT13=
PLAYORDER=
